{"title":"Senasuru Maruwa (2012) 1CD DVD Rip 700 MB-[Marce11]","uid":8636543,"size":737340044,"categoryP":"video","categoryS":"movies","magnet":"?xt=urn:btih:089906feee05119b4b7b4957a0ece506d0ff3a93&amp;dn=Senasuru+Maruwa+%282012%29+1CD+DVD+Rip+700+MB-%5BMarce11%5D&amp;tr=udp%3A%2F%2Ftracker.openbittorrent.com%3A80&amp;tr=udp%3A%2F%2Fopen.demonii.com%3A1337&amp;tr=udp%3A%2F%2Ftracker.coppersurfer.tk%3A6969&amp;tr=udp%3A%2F%2Fexodus.desync.com%3A6969","seeders":1,"leechers":0,"uploader":"marce11","files":-1,"time":1372723352,"description":"Complete name : E:Senasuru Maruwa (2012) 1CD DVD Rip 700 MB-[Marce11]Senasuru Maruwa (2012) 1CD DVD Rip-Marce11.avi\n Format : AVI\n Format/Info : Audio Video Interleave\n File size : 703 MiB\n Duration : 1h 34mn\n Overall bit rate : 1 039 Kbps\n Movie name : DVD_VIDEO_RECORDER\n Writing application : MEncoder 5.0\n Writing library : [= DigiArty videodll! =]\n\n\n\n ID : 0\n Format : MPEG-4 Visual\n Format profile : Advanced Simple@L5\n Format settings, BVOP : 2\n Format settings, QPel : No\n Format settings, GMC : No warppoints\n Format settings, Matrix : Default (H.263)\n Codec ID : XVID\n Codec ID/Hint : XviD\n Duration : 1h 34mn\n Bit rate : 650 Kbps\n Width : 720 pixels\n Height : 540 pixels\n Display aspect ratio : 4:3\n Frame rate : 25.000 fps\n Color space : YUV\n Chroma subsampling : 4:2:0\n Bit depth : 8 bits\n Scan type : Progressive\n Compression mode : Lossy\n Bits/(Pixel*Frame) : 0.067\n Stream size : 439 MiB (63%)\n Writing library : XviD 63\n\nAudio\n\n ID : 1\n Format : AC-3\n Format/Info : Audio Coding 3\n Mode extension : CM (complete main)\n Format settings, Endianness : Big\n Codec ID : 2000\n Duration : 1h 34mn\n Bit rate mode : Constant\n Bit rate : 384 Kbps\n Channel(s) : 2 channels\n Channel positions : Front: L R\n Sampling rate : 48.0 KHz\n Bit depth : 16 bits\n Compression mode : Lossy\n Delay relative to video : 40ms\n Stream size : 260 MiB (37%)\n Alignment : Split accross interleaves\n Interleave, duration : 500 ms (12.50 video frames)\n Interleave, preload duration : 500 ms\n\n\n=:: Screen Shots::=\n &lt;a href=&quot;\nhttp://bayimg.com/KanNKAAEi&quot; rel=&quot;nofollow&quot; target=&quot;_NEW&quot;&gt;\nhttp://bayimg.com/KanNKAAEi&lt;/a&gt;\n &lt;a href=&quot;\nhttp://bayimg.com/kANNmaaEi&quot; rel=&quot;nofollow&quot; target=&quot;_NEW&quot;&gt;\nhttp://bayimg.com/kANNmaaEi&lt;/a&gt;\n &lt;a href=&quot;\nhttp://bayimg.com/KAnNoAAeI&quot; rel=&quot;nofollow&quot; target=&quot;_NEW&quot;&gt;\nhttp://bayimg.com/KAnNoAAeI&lt;/a&gt;","torrent":{"xt":"urn:btih:089906feee05119b4b7b4957a0ece506d0ff3a93","amp;dn":"Senasuru+Maruwa+%282012%29+1CD+DVD+Rip+700+MB-%5BMarce11%5D","amp;tr":["udp%3A%2F%2Ftracker.openbittorrent.com%3A80","udp%3A%2F%2Fopen.demonii.com%3A1337","udp%3A%2F%2Ftracker.coppersurfer.tk%3A6969","udp%3A%2F%2Fexodus.desync.com%3A6969"],"infoHash":"089906feee05119b4b7b4957a0ece506d0ff3a93","infoHashBuffer":{"type":"Buffer","data":[8,153,6,254,238,5,17,155,75,123,73,87,160,236,229,6,208,255,58,147]},"announce":[],"urlList":[]}}